<svg width="16" height="16" viewBox="0 0 64 64" xmlns="http://www.w3.org/2000/svg">
    <style>
        path {
            fill: #00978C;
        }
        @media (prefers-color-scheme: dark) {
            path {
                fill: #2AE9AE;
            }
        }
    </style>
    
    <g stroke="none" stroke-width="1" fill="none" fill-rule="evenodd">
        <path d="M17.2340398,38 C19.3057505,38 21.6501806,38.301875 23.6644766,40.3239583 C25.6787727,42.3460417 25.984984,44.6891667 25.984984,46.7639583 C26.0041222,48.5752083 26.0041222,50.4583333 25.9897685,52.2360417 C25.9754149,54.3108333 25.6883418,56.65875 23.6692612,58.6760417 C21.6501806,60.6933333 19.3105351,61 17.2388244,61 L17.2388244,61 L11.7605133,61 C9.68401803,61 7.33958794,60.7125 5.32529188,58.6904167 C3.31099583,56.6683333 3,54.3252083 3,52.2504167 L3,52.2504167 L3,46.7639583 C3.0191382,44.6891667 3.30621128,42.34125 5.32529188,40.3239583 C7.34437249,38.3066667 9.68401803,38 11.7557287,38 L11.7557287,38 Z M40.0360932,38.0013119 C40.2628099,38.0092635 40.4773011,38.1037914 40.6335238,38.2646041 C43.3986805,41.299645 46.1638372,44.3314945 48.9289939,47.3601525 C48.9687324,47.3972339 49.0312676,47.3972339 49.0710061,47.3601525 L57.3664762,38.2646041 C57.5233076,38.1046315 57.737431,38.0102657 57.9639068,38.0013119 L60.6474473,38.0013119 C60.7850401,37.9890507 60.9153894,38.0636454 60.9718106,38.1869344 C61.0282317,38.3102235 60.9982457,38.4549382 60.8971929,38.5470448 L50.9465463,49.4664901 C50.917899,49.501468 50.917899,49.5511904 50.9465463,49.5861684 L60.8482231,60.4529552 C60.9482757,60.5445192 60.9783739,60.687816 60.9233248,60.8105126 C60.8682757,60.9332093 60.7400507,61.0086235 60.6033746,60.9986881 L57.919834,60.9986881 C57.6929954,60.9912476 57.4783151,60.8966364 57.3224035,60.7353959 C54.5703054,57.7258864 51.8165749,54.7068026 49.0612121,51.6781445 C49.0214737,51.6410631 48.9589384,51.6410631 48.9192,51.6781445 C46.1801604,54.7068026 43.4329593,57.7258864 40.6775965,60.7353959 C40.5216849,60.8966364 40.3070046,60.9912476 40.080166,60.9986881 L37.4015224,60.9986881 C37.2639297,61.0109493 37.1335803,60.9363546 37.0771592,60.8130656 C37.020738,60.6897765 37.050724,60.5450618 37.1517769,60.4529552 L47.0534537,49.5861684 C47.082101,49.5511904 47.082101,49.501468 47.0534537,49.4664901 C43.7398362,45.8250793 40.422954,42.1852642 37.1028071,38.5470448 C37.0017543,38.4549382 36.9717683,38.3102235 37.0281894,38.1869344 C37.0846106,38.0636454 37.2149599,37.9890507 37.3525527,38.0013119 L40.0360932,38.0013119 Z M17.530682,40.8702083 L11.4495174,40.8702083 C10.1241967,40.8845833 8.63620132,41.0666667 7.34915704,42.355625 C6.06211277,43.6445833 5.86594617,45.1347917 5.86594617,46.4620833 L5.86594617,46.4620833 L5.86594617,52.5522917 C5.88029982,53.8795833 6.06211277,55.3697917 7.34915704,56.65875 C8.63620132,57.9477083 10.1241967,58.1441667 11.4495174,58.1441667 L11.4495174,58.1441667 L17.530682,58.1441667 C18.8560027,58.1297917 20.3439981,57.9477083 21.6310424,56.65875 C22.9180867,55.3697917 23.1142533,53.8795833 23.1142533,52.5522917 L23.1142533,52.5522917 C23.138176,50.549375 23.138176,48.465 23.1142533,46.4620833 C23.0998996,45.1347917 22.9180867,43.6445833 21.6310424,42.355625 C20.3439981,41.0666667 18.8560027,40.8702083 17.530682,40.8702083 L17.530682,40.8702083 Z M52.236671,3 C54.3087646,3 56.6440572,3.301875 58.6635111,5.32395833 C60.6829649,7.34604167 60.9892328,9.68916667 60.9892328,11.7639583 C61.0035891,13.5752083 61.0035891,15.4583333 60.9892328,17.2360417 C60.970091,19.3108333 60.6781795,21.65875 58.6635111,23.6760417 C56.6488427,25.6933333 54.3087646,26 52.236671,26 L52.236671,26 L46.7573472,26 C44.6804681,26 42.3451756,25.7125 40.3257217,23.6904167 C38.3062679,21.6683333 38,19.3252083 38,17.2504167 L38,17.2504167 L38,11.7639583 C38.0191417,9.68916667 38.3062679,7.34125 40.3257217,5.32395833 C42.3451756,3.30666667 44.6804681,3 46.7573472,3 L46.7573472,3 Z M24.3565027,3.01523921 C24.8016454,2.94985539 25.2516664,3.09715355 25.5721437,3.4131355 C25.8926209,3.72911744 26.046455,4.17720405 25.9876953,4.62355111 L25.9876953,4.62355111 L25.9876953,6.61479442 C25.9717124,7.07471785 25.7613173,7.50621903 25.408885,7.80188177 L25.408885,7.80188177 L5.92546141,22.9372455 C5.89243558,22.9642891 5.87315099,23.0046374 5.87284229,23.0473383 L5.87284229,23.0473383 L5.87284229,23.0712715 C5.87284229,23.1082818 5.90282568,23.1382845 5.93981207,23.1382845 L5.93981207,23.1382845 L25.5858766,23.1382845 C25.8056672,23.1433424 25.9826406,23.3204301 25.9876953,23.5403625 L25.9876953,23.5403625 L25.9876953,25.5938322 C25.9801448,25.8118935 25.8038721,25.9861801 25.5858766,25.9911235 L25.5858766,25.9911235 L4.61955062,25.9911235 C4.18149592,26.0396562 3.74499246,25.8874413 3.43195798,25.5769933 C3.1189235,25.2665453 2.96290977,24.8311387 3.00749224,24.3923849 L3.00749224,24.3923849 L3.00749224,22.4442214 C3.02347513,21.9842979 3.2338702,21.5527968 3.58630252,21.257134 L3.58630252,21.257134 L23.0697261,6.10262366 C23.1025596,6.07752228 23.1219771,6.03866205 23.1223452,5.99731753 L23.1223452,5.99731753 L23.1223452,5.9494511 C23.1223452,5.91244085 23.0923619,5.88243811 23.0553755,5.88243811 L23.0553755,5.88243811 L3.40931095,5.88243811 C3.18952035,5.8773802 3.01254689,5.70029255 3.00749224,5.48036013 L3.00749224,5.48036013 L3.00749224,3.41253055 C3.01504272,3.19446924 3.19131546,3.0201826 3.40931095,3.01523921 L3.40931095,3.01523921 Z M52.533368,5.875 L46.4558648,5.875 C45.1302991,5.875 43.6324577,6.0475 42.349961,7.33645833 C41.0674642,8.62541667 40.8712614,10.115625 40.8712614,11.4429167 L40.8712614,11.4429167 L40.8712614,17.533125 C40.8856177,18.8604167 41.0626788,20.350625 42.349961,21.6395833 C43.6372432,22.9285417 45.1302991,23.125 46.4558648,23.125 L46.4558648,23.125 L52.533368,23.125 C53.8589337,23.125 55.3519896,22.9477083 56.6392718,21.65875 C57.926554,20.3697917 58.1179714,18.8795833 58.1179714,17.5522917 C58.1418986,15.549375 58.1418986,13.465 58.1179714,11.466875 C58.1084005,10.1395833 57.926554,8.649375 56.6392718,7.36041667 C55.3519896,6.07145833 53.8589337,5.875 52.533368,5.875 L52.533368,5.875 Z" id="svg-favicon-logo"></path>
    </g>
</svg>